<svg width="12" height="17" viewBox="0 0 12 17" fill="none" xmlns="http://www.w3.org/2000/svg">
<path d="M1.36132 0H10.5886C11.3401 0 12 0.660852 12 1.44308V16.0343C12 16.2961 11.9318 16.5143 11.8219 16.6829C11.6905 16.8845 11.479 17 11.2521 16.9999C11.0376 16.9999 10.8092 16.8979 10.5983 16.7053L6.47002 12.9585C6.34252 12.8421 6.15937 12.7754 5.96895 12.7754C5.7786 12.7754 5.59583 12.8421 5.46795 12.9588L1.35345 16.7047C1.1418 16.8979 0.929174 17 0.715049 17C0.352949 17 -4.76837e-07 16.7014 -4.76837e-07 16.0343V1.44308C-4.76837e-07 0.660852 0.609825 0 1.36132 0Z" fill="#7A858C"/>
</svg>
