<svg width="8" height="11" viewBox="0 0 8 11" fill="none" xmlns="http://www.w3.org/2000/svg">
<path d="M0.90755 0H7.0591C7.5601 0 8 0.42761 8 0.93376V10.3751C8 10.5445 7.95455 10.6857 7.8813 10.7948C7.7937 10.9252 7.65265 11 7.5014 10.9999C7.3584 10.9999 7.20615 10.9339 7.06555 10.8093L4.31335 8.3849C4.22835 8.30958 4.10625 8.26642 3.9793 8.26642C3.8524 8.26642 3.73055 8.30958 3.6453 8.38511L0.9023 10.8089C0.7612 10.9339 0.61945 11 0.4767 11C0.2353 11 -1.19209e-07 10.8068 -1.19209e-07 10.3752V0.93376C-1.19209e-07 0.42761 0.40655 0 0.90755 0Z" fill="#7A858C"/>
</svg>
