<svg width="14" height="14" viewBox="0 0 14 14" fill="none" xmlns="http://www.w3.org/2000/svg">
<path d="M12.8894 1.98456C12.1647 1.19853 11.1702 0.765625 10.0891 0.765625C9.28096 0.765625 8.54086 1.02112 7.88931 1.52495C7.56055 1.77927 7.26265 2.09041 7 2.45357C6.73746 2.09052 6.43945 1.77927 6.11058 1.52495C5.45914 1.02112 4.71904 0.765625 3.9109 0.765625C2.82976 0.765625 1.83524 1.19853 1.11052 1.98456C0.394455 2.7614 0 3.82268 0 4.97304C0 6.15704 0.441238 7.24086 1.38855 8.38396C2.23599 9.40646 3.45396 10.4445 4.86441 11.6464C5.34602 12.0569 5.89194 12.5222 6.45879 13.0178C6.60854 13.1489 6.80069 13.2211 7 13.2211C7.1992 13.2211 7.39146 13.1489 7.541 13.018C8.10785 12.5223 8.65408 12.0568 9.13591 11.6461C10.5461 10.4444 11.7641 9.40646 12.6116 8.38385C13.5589 7.24086 14 6.15704 14 4.97293C14 3.82268 13.6055 2.7614 12.8894 1.98456Z" fill="#3C4858"/>
</svg>
