<svg width="134" height="28" viewBox="0 0 134 28" fill="none" xmlns="http://www.w3.org/2000/svg">
<path d="M22.9678 8.25677C22.9678 12.8168 19.1766 16.5135 14.5 16.5135C9.82339 16.5135 6.03223 12.8168 6.03223 8.25677C6.03223 3.69669 9.82339 0 14.5 0C19.1766 0 22.9678 3.69669 22.9678 8.25677Z" fill="#42C0E2"/>
<path d="M29 18.9117C29 23.4718 25.2088 27.1685 20.5322 27.1685C15.8556 27.1685 12.0645 23.4718 12.0645 18.9117C12.0645 14.3516 15.8556 10.6549 20.5322 10.6549C25.2088 10.6549 29 14.3516 29 18.9117Z" fill="#FFD061"/>
<path d="M12.5033 16.2821C13.1436 16.4329 13.8122 16.5135 14.5001 16.5135C18.2337 16.5135 21.4029 14.1572 22.5291 10.8864C21.8888 10.7354 21.2202 10.6549 20.5323 10.6549C16.7987 10.6549 13.6295 13.0112 12.5033 16.2821Z" fill="#49BD90"/>
<path d="M16.9355 18.9117C16.9355 23.4718 13.1444 27.1685 8.46777 27.1685C3.79116 27.1685 0 23.4718 0 18.9117C0 14.3516 3.79116 10.6549 8.46777 10.6549C13.1444 10.6549 16.9355 14.3516 16.9355 18.9117Z" fill="#FA70B2"/>
<path d="M6.47107 10.8864C7.59724 14.1572 10.7665 16.5135 14.5001 16.5135C15.188 16.5135 15.8566 16.4329 16.4969 16.2821C15.3707 13.0112 12.2015 10.6549 8.46787 10.6549C7.78 10.6549 7.11137 10.7354 6.47107 10.8864Z" fill="#AF7BC6"/>
<path d="M12.0645 18.9117C12.0645 21.1694 12.9942 23.215 14.5 24.7056C16.0058 23.215 16.9355 21.1694 16.9355 18.9117C16.9355 16.654 16.0058 14.6083 14.5 13.1178C12.9942 14.6083 12.0645 16.654 12.0645 18.9117Z" fill="#EF6122"/>
<path d="M16.4969 16.2827C15.8566 16.4333 15.1877 16.5135 14.5001 16.5135C13.8124 16.5135 13.1436 16.4333 12.5033 16.2827C12.9175 15.0799 13.6076 14.0015 14.5001 13.1178C15.3926 14.0015 16.0827 15.0799 16.4969 16.2827Z" fill="white"/>
<path d="M54.533 12.5136C54.3284 11.2218 53.8878 10.249 53.2112 9.59533C52.5504 8.94164 51.6692 8.607 50.5677 8.59144C49.7495 8.59144 49.0336 8.77821 48.4199 9.15175C47.8062 9.52529 47.2949 10.0233 46.8857 10.6459C46.4924 11.2685 46.1934 11.9767 45.9888 12.7704C45.8 13.5642 45.7056 14.3813 45.7056 15.2218C45.7056 16.5603 45.8944 17.751 46.2721 18.7938C46.6654 19.821 47.2319 20.6303 47.9715 21.2218C48.711 21.8132 49.6079 22.1089 50.6622 22.1089C51.6535 22.1089 52.6369 21.8599 53.6125 21.3619C54.5881 20.8482 55.4063 20.1401 56.0672 19.2374L57.2001 20.2646C56.4291 21.3074 55.6187 22.1012 54.769 22.6459C53.9193 23.1751 53.0854 23.5331 52.2671 23.7198C51.4646 23.9066 50.7408 24 50.0957 24C48.8841 24 47.7826 23.7899 46.7913 23.3696C45.8 22.9339 44.9425 22.3424 44.2186 21.5953C43.5106 20.8327 42.9598 19.9533 42.5665 18.9572C42.1888 17.9455 42 16.856 42 15.6887C42 14.6303 42.1731 13.5798 42.5193 12.537C42.8654 11.4942 43.3768 10.5525 44.0534 9.71206C44.7458 8.85603 45.6112 8.17899 46.6497 7.68093C47.6882 7.16732 48.892 6.91051 50.2609 6.91051C50.8746 6.91051 51.5433 7.01167 52.2671 7.21401C53.0067 7.40078 53.699 7.68093 54.3442 8.05447L54.2498 7.07393H56.0672V12.5136H54.533Z" fill="#3B4655"/>
<path d="M64.1741 24C63.0412 24 62.0184 23.7588 61.1058 23.2763C60.1931 22.7938 59.4693 22.1089 58.9343 21.2218C58.4151 20.3191 58.1554 19.2607 58.1554 18.0467C58.1554 16.7549 58.4229 15.6265 58.9579 14.6615C59.5086 13.6809 60.2325 12.9261 61.1294 12.3969C62.042 11.8521 63.0333 11.5798 64.1033 11.5798C65.2362 11.5798 66.2511 11.821 67.148 12.3035C68.0449 12.786 68.753 13.4786 69.2723 14.3813C69.7915 15.2685 70.0511 16.3346 70.0511 17.5798C70.0511 18.8872 69.7994 20.0233 69.2959 20.9883C68.7923 21.9533 68.1 22.7004 67.2188 23.2296C66.3377 23.7432 65.3228 24 64.1741 24ZM64.2685 22.3424C64.8979 22.3268 65.37 22.1089 65.6847 21.6887C66.0151 21.2685 66.2433 20.7393 66.3691 20.1012C66.495 19.463 66.558 18.8171 66.558 18.1634C66.558 17.5875 66.5108 17.0039 66.4163 16.4125C66.3377 15.821 66.2039 15.284 66.0151 14.8016C65.8263 14.3191 65.5666 13.93 65.2362 13.6342C64.9215 13.3385 64.5281 13.1984 64.0561 13.214C63.4424 13.2296 62.9546 13.4475 62.5927 13.8677C62.2465 14.2879 61.9948 14.8171 61.8374 15.4553C61.6958 16.0778 61.625 16.7315 61.625 17.4163C61.625 18.2101 61.7116 18.9883 61.8846 19.751C62.0577 20.5136 62.3331 21.144 62.7107 21.642C63.1041 22.1245 63.6234 22.358 64.2685 22.3424Z" fill="#3B4655"/>
<path d="M71.2903 22.1089C71.7309 22.1089 72.0456 22.0233 72.2344 21.8521C72.4389 21.6809 72.5648 21.4397 72.612 21.1284C72.6592 20.8016 72.6828 20.4358 72.6828 20.0311V10.4358C72.6828 10.1556 72.6907 9.83658 72.7064 9.4786C72.7222 9.10506 72.7458 8.74708 72.7772 8.40467C72.5255 8.42023 72.2265 8.4358 71.8803 8.45136C71.5499 8.45136 71.2981 8.45914 71.1251 8.47471V6.70039C71.8646 6.70039 72.4783 6.66148 72.9661 6.58366C73.4696 6.50584 73.863 6.41245 74.1462 6.3035C74.4452 6.19455 74.6497 6.09339 74.7599 6H76.0344V19.8677C76.0344 20.0856 76.0265 20.3969 76.0108 20.8016C75.9951 21.1907 75.9715 21.5642 75.94 21.9222C76.2075 21.891 76.4907 21.8755 76.7897 21.8755C77.0887 21.8599 77.3168 21.8521 77.4742 21.8521V23.6265H71.2903V22.1089Z" fill="#3B4655"/>
<path d="M84.8033 24C83.6704 24 82.6476 23.7588 81.735 23.2763C80.8224 22.7938 80.0985 22.1089 79.5635 21.2218C79.0443 20.3191 78.7847 19.2607 78.7847 18.0467C78.7847 16.7549 79.0522 15.6265 79.5871 14.6615C80.1379 13.6809 80.8617 12.9261 81.7586 12.3969C82.6712 11.8521 83.6625 11.5798 84.7325 11.5798C85.8654 11.5798 86.8803 11.821 87.7772 12.3035C88.6741 12.786 89.3822 13.4786 89.9015 14.3813C90.4207 15.2685 90.6804 16.3346 90.6804 17.5798C90.6804 18.8872 90.4286 20.0233 89.9251 20.9883C89.4216 21.9533 88.7292 22.7004 87.8481 23.2296C86.9669 23.7432 85.952 24 84.8033 24ZM84.8977 22.3424C85.5271 22.3268 85.9992 22.1089 86.3139 21.6887C86.6443 21.2685 86.8725 20.7393 86.9984 20.1012C87.1242 19.463 87.1872 18.8171 87.1872 18.1634C87.1872 17.5875 87.14 17.0039 87.0456 16.4125C86.9669 15.821 86.8331 15.284 86.6443 14.8016C86.4555 14.3191 86.1959 13.93 85.8654 13.6342C85.5507 13.3385 85.1574 13.1984 84.6853 13.214C84.0716 13.2296 83.5839 13.4475 83.2219 13.8677C82.8758 14.2879 82.624 14.8171 82.4667 15.4553C82.3251 16.0778 82.2542 16.7315 82.2542 17.4163C82.2542 18.2101 82.3408 18.9883 82.5139 19.751C82.687 20.5136 82.9623 21.144 83.34 21.642C83.7333 22.1245 84.2526 22.358 84.8977 22.3424Z" fill="#3B4655"/>
<path d="M92.3893 22.1089C92.8299 22.1089 93.1446 22.0233 93.3335 21.8521C93.5223 21.6809 93.6403 21.4397 93.6875 21.1284C93.7504 20.8016 93.7819 20.4358 93.7819 20.0311V16.1089C93.7819 15.8288 93.7898 15.5175 93.8055 15.1751C93.8212 14.8171 93.8448 14.4669 93.8763 14.1245C93.6246 14.1401 93.3256 14.1556 92.9794 14.1712C92.649 14.1712 92.3972 14.179 92.2241 14.1946V12.4202H93.1682C93.7819 12.4202 94.3405 12.3424 94.844 12.1868C95.3633 12.0311 95.7016 11.8755 95.8589 11.7198H97.0155C97.0469 11.8755 97.0705 12.1712 97.0863 12.607C97.102 13.0272 97.1099 13.4008 97.1099 13.7276C97.5347 13.214 97.936 12.8016 98.3136 12.4903C98.6912 12.179 99.061 11.9533 99.4229 11.8132C99.8006 11.6576 100.178 11.5798 100.556 11.5798C101.107 11.5798 101.586 11.7354 101.996 12.0467C102.405 12.3424 102.609 12.8327 102.609 13.5175C102.609 13.751 102.554 14 102.444 14.2646C102.334 14.5136 102.161 14.7237 101.925 14.8949C101.689 15.0661 101.366 15.1518 100.957 15.1518C100.642 15.1518 100.32 15.0584 99.9894 14.8716C99.6589 14.6848 99.4701 14.3268 99.4229 13.7977C99.1082 13.7977 98.7935 13.93 98.4788 14.1946C98.1641 14.4436 97.8809 14.7471 97.6291 15.1051C97.3931 15.4475 97.2279 15.7665 97.1335 16.0623V19.8677C97.1335 20.0856 97.1256 20.3969 97.1099 20.8016C97.0941 21.1907 97.0705 21.5642 97.0391 21.9222C97.2908 21.891 97.5662 21.8755 97.8652 21.8755C98.1799 21.8599 98.4159 21.8521 98.5732 21.8521V23.6265H92.3893V22.1089Z" fill="#3B4655"/>
<path d="M103.73 22.1089C104.17 22.1089 104.485 22.0233 104.674 21.8521C104.863 21.6809 104.981 21.4397 105.028 21.1284C105.091 20.8016 105.122 20.4358 105.122 20.0311V16.1556C105.122 15.8755 105.13 15.5564 105.146 15.1984C105.162 14.8249 105.185 14.4669 105.217 14.1245C104.965 14.1401 104.666 14.1556 104.32 14.1712C103.989 14.1712 103.738 14.179 103.564 14.1946V12.4202C104.288 12.4202 104.902 12.3813 105.405 12.3035C105.909 12.2257 106.302 12.1323 106.586 12.0233C106.885 11.9144 107.089 11.8132 107.199 11.7198H108.474V19.8677C108.474 20.0856 108.466 20.3969 108.45 20.8016C108.434 21.1907 108.411 21.5642 108.379 21.9222C108.631 21.891 108.906 21.8755 109.205 21.8755C109.52 21.8599 109.756 21.8521 109.914 21.8521V23.6265H103.73V22.1089ZM106.68 9.87549C106.145 9.87549 105.704 9.68872 105.358 9.31518C105.012 8.94163 104.839 8.49027 104.839 7.96109C104.839 7.43191 105.02 6.98054 105.382 6.607C105.744 6.23346 106.169 6.04669 106.656 6.04669C107.16 6.04669 107.577 6.23346 107.907 6.607C108.253 6.98054 108.427 7.43191 108.427 7.96109C108.427 8.49027 108.269 8.94163 107.955 9.31518C107.64 9.68872 107.215 9.87549 106.68 9.87549Z" fill="#3B4655"/>
<path d="M116.88 24C116.203 24 115.542 23.9144 114.897 23.7432C114.252 23.572 113.749 23.3541 113.387 23.0895L113.434 23.7899H111.64L111.546 19.7743H113.08C113.127 20.2412 113.316 20.6693 113.646 21.0584C113.977 21.4475 114.409 21.7588 114.944 21.9922C115.479 22.2101 116.077 22.3191 116.738 22.3191C117.006 22.3191 117.257 22.2802 117.493 22.2023C117.745 22.1245 117.95 22 118.107 21.8288C118.28 21.642 118.367 21.4163 118.367 21.1518C118.367 20.856 118.257 20.6148 118.036 20.428C117.832 20.2412 117.525 20.0623 117.116 19.891C116.722 19.7198 116.227 19.5253 115.629 19.3074C115.141 19.1206 114.645 18.9261 114.142 18.7237C113.654 18.5214 113.198 18.2802 112.773 18C112.364 17.7043 112.033 17.3463 111.782 16.9261C111.53 16.4903 111.404 15.9611 111.404 15.3385C111.404 14.8872 111.491 14.4436 111.664 14.0078C111.837 13.5564 112.104 13.1518 112.466 12.7938C112.828 12.4202 113.284 12.1245 113.835 11.9066C114.402 11.6887 115.07 11.5798 115.841 11.5798C116.266 11.5798 116.746 11.6498 117.281 11.7899C117.832 11.9144 118.296 12.109 118.674 12.3735V11.6965H120.467V15.8288H118.933C118.839 15.284 118.642 14.8171 118.343 14.428C118.06 14.0389 117.69 13.7432 117.234 13.5409C116.778 13.323 116.266 13.214 115.7 13.214C115.306 13.214 114.944 13.3074 114.614 13.4942C114.299 13.6809 114.142 14 114.142 14.4514C114.142 14.8093 114.268 15.0973 114.52 15.3152C114.771 15.5175 115.117 15.6887 115.558 15.8288C115.999 15.9689 116.486 16.1323 117.021 16.3191C117.824 16.5837 118.532 16.8949 119.146 17.2529C119.775 17.6109 120.271 18.0467 120.633 18.5603C120.995 19.0584 121.175 19.6732 121.175 20.4047C121.175 21.214 120.971 21.8833 120.562 22.4124C120.153 22.9416 119.618 23.3385 118.957 23.6031C118.312 23.8677 117.619 24 116.88 24Z" fill="#3B4655"/>
<path d="M128.501 24C127.352 24 126.337 23.751 125.456 23.2529C124.575 22.7393 123.89 22.0233 123.402 21.1051C122.915 20.1712 122.671 19.0739 122.671 17.8132C122.671 16.7237 122.915 15.7043 123.402 14.7549C123.89 13.8054 124.575 13.0428 125.456 12.4669C126.353 11.8755 127.391 11.5798 128.571 11.5798C129.232 11.5798 129.877 11.6732 130.507 11.8599C131.136 12.0311 131.703 12.3346 132.206 12.7704C132.725 13.2062 133.135 13.7977 133.434 14.5447C133.748 15.2918 133.898 16.2257 133.882 17.3463L126.14 17.4864C126.14 18.3268 126.243 19.0817 126.447 19.751C126.667 20.4202 127.021 20.9494 127.509 21.3385C127.997 21.7276 128.65 21.9222 129.468 21.9222C129.783 21.9222 130.137 21.8677 130.53 21.7588C130.94 21.6498 131.349 21.4708 131.758 21.2218C132.183 20.9572 132.576 20.607 132.938 20.1712L134 21.1518C133.434 21.9455 132.828 22.5525 132.183 22.9728C131.537 23.3774 130.892 23.6498 130.247 23.7899C129.618 23.93 129.036 24 128.501 24ZM126.282 15.8521H130.625C130.609 15.1984 130.515 14.6848 130.342 14.3113C130.184 13.9222 129.964 13.642 129.681 13.4708C129.397 13.2996 129.067 13.214 128.689 13.214C127.997 13.214 127.454 13.463 127.061 13.9611C126.667 14.4436 126.408 15.0739 126.282 15.8521Z" fill="#3B4655"/>
</svg>
