<svg width="21" height="22" viewBox="0 0 21 22" fill="none" xmlns="http://www.w3.org/2000/svg">
<path fill-rule="evenodd" clip-rule="evenodd" d="M0 9.74796C0 4.64877 4.14877 0.5 9.24796 0.5C14.3474 0.5 18.4959 4.64877 18.4959 9.74796C18.4959 11.991 17.6933 14.05 16.3601 15.653L20.75 20.0428C21.0835 20.376 21.0835 20.9167 20.75 21.2499C20.5832 21.4166 20.3647 21.5 20.1464 21.5C19.9279 21.5 19.7096 21.4166 19.5429 21.2499L15.1531 16.8601C13.5501 18.1933 11.491 18.9959 9.24796 18.9959C4.14877 18.9959 0 14.8474 0 9.74796ZM1.70732 9.748C1.70732 13.9059 5.09008 17.2886 9.24796 17.2886C13.4058 17.2886 16.7886 13.9058 16.7886 9.74796C16.7886 5.59008 13.4058 2.20732 9.24796 2.20732C5.09008 2.20732 1.70732 5.59012 1.70732 9.748Z" fill="#7A858C"/>
</svg>
