<svg width="16" height="16" viewBox="0 0 16 16" fill="none" xmlns="http://www.w3.org/2000/svg">
<g clip-path="url(#clip0)">
<path d="M3.40853 6.11295C2.45402 6.11295 1.67749 6.88948 1.67749 7.84399C1.67749 8.7985 2.45402 9.57503 3.40853 9.57503C4.36304 9.57503 5.13958 8.7985 5.13958 7.84399C5.13958 6.88948 4.36304 6.11295 3.40853 6.11295V6.11295ZM3.40853 8.63392C2.97299 8.63392 2.6186 8.27957 2.6186 7.84399C2.6186 7.40841 2.97299 7.05406 3.40853 7.05406C3.84408 7.05406 4.19846 7.40841 4.19846 7.84399C4.19846 8.27957 3.84408 8.63392 3.40853 8.63392Z" fill="#3C4858"/>
<path d="M6.47393 10.2014C5.51945 10.2014 4.74292 10.978 4.74292 11.9325C4.74292 12.887 5.51945 13.6635 6.47393 13.6635C7.42844 13.6635 8.20497 12.887 8.20497 11.9325C8.20497 10.978 7.42844 10.2014 6.47393 10.2014V10.2014ZM6.47393 12.7224C6.03839 12.7224 5.68403 12.368 5.68403 11.9325C5.68403 11.4969 6.03839 11.1425 6.47393 11.1425C6.90951 11.1425 7.26386 11.4969 7.26386 11.9325C7.26389 12.368 6.90951 12.7224 6.47393 12.7224Z" fill="#3C4858"/>
<path d="M15.5664 10.1864C15.5633 10.1834 15.5602 10.1804 15.5571 10.1773L13.9276 8.63975C14.8398 7.95005 15.2518 6.72925 14.8771 5.5999C13.1105 0.27024 6.32227 -1.42061 2.27744 2.5631C-0.751928 5.5467 -0.723661 10.3575 2.15057 13.3199C4.73268 15.9813 8.80133 16.3551 11.8042 14.3894C13.2105 13.4692 12.564 11.2787 10.8812 11.2787C9.62445 11.2787 9.41325 9.52154 10.6004 9.22064L13.4711 12.263C13.4741 12.2661 13.4771 12.2693 13.4802 12.2724C14.0557 12.8492 14.9905 12.8507 15.5674 12.2737C16.1444 11.6968 16.1444 10.763 15.5664 10.1864V10.1864ZM9.48641 11.6642C9.86448 12.0225 10.3598 12.2198 10.8813 12.2198C11.6328 12.2198 11.9162 13.1915 11.2889 13.602C8.66065 15.3224 5.09108 14.9992 2.82602 12.6646C0.285531 10.0462 0.300495 5.84401 2.94824 3.23959C6.49626 -0.250355 12.4305 1.20972 13.9838 5.89612C14.247 6.68932 13.9181 7.55121 13.2283 7.97986L10.6145 5.51338C10.7728 4.7536 10.5536 3.95263 9.97937 3.37841C9.25865 2.65766 6.98812 2.29841 6.00412 2.19153C5.70567 2.15903 5.45297 2.41132 5.48544 2.71021C5.5932 3.69804 5.95035 5.96342 6.67235 6.68546C7.24697 7.26001 8.04835 7.47874 8.80754 7.32053L9.90853 8.48734C8.73614 9.12379 8.49808 10.7277 9.48641 11.6642V11.6642ZM7.3378 6.01998C6.98319 5.66538 6.66636 4.3167 6.49908 3.20514C7.61068 3.37239 8.95935 3.68925 9.31392 4.04386C9.85993 4.58986 9.86003 5.47382 9.31392 6.01998C8.76914 6.56483 7.885 6.56718 7.3378 6.01998ZM14.902 11.6082C14.6947 11.8156 14.359 11.8166 14.1504 11.6116C13.9096 11.3563 9.93777 7.14704 9.71647 6.91253C9.90213 6.77465 10.0685 6.60825 10.2066 6.4224L14.9057 10.8567C15.1108 11.0655 15.1097 11.4005 14.902 11.6082V11.6082Z" fill="#3C4858"/>
</g>
<defs>
<clipPath id="clip0">
<rect width="16" height="16" fill="white"/>
</clipPath>
</defs>
</svg>
